<svg width="38" height="27" viewBox="0 0 38 27" fill="none" xmlns="http://www.w3.org/2000/svg">
<path d="M0 2.25C0 1.00736 1.00736 0 2.25 0H35.75C36.9926 0 38 1.00736 38 2.25V2.25C38 3.49264 36.9926 4.5 35.75 4.5H2.25C1.00736 4.5 0 3.49264 0 2.25V2.25ZM0 13.5C0 12.2574 1.00736 11.25 2.25 11.25H35.75C36.9926 11.25 38 12.2574 38 13.5V13.5C38 14.7426 36.9926 15.75 35.75 15.75H2.25C1.00736 15.75 0 14.7426 0 13.5V13.5ZM0 24.75C0 23.5074 1.00736 22.5 2.25 22.5H35.75C36.9926 22.5 38 23.5074 38 24.75V24.75C38 25.9926 36.9926 27 35.75 27H2.25C1.00736 27 0 25.9926 0 24.75V24.75Z" fill="white"/>
</svg>
