<svg width="22" height="21" viewBox="0 0 22 21" fill="none" xmlns="http://www.w3.org/2000/svg">
<path d="M16.6776 20.9998C16.3899 20.9998 16.1004 20.9306 15.8338 20.7913L11.024 18.2732L6.16586 20.7905C5.86697 20.9486 5.5293 21.0197 5.19167 20.9953C4.85404 20.971 4.53016 20.8523 4.25727 20.653C3.98259 20.4562 3.76925 20.1863 3.64176 19.8742C3.51428 19.5622 3.47783 19.2207 3.5366 18.889L4.45526 13.5584L0.5492 9.73702C0.305677 9.50285 0.133471 9.20504 0.0523741 8.87781C-0.0287231 8.55059 -0.0154213 8.20722 0.0907509 7.88719C0.194368 7.56664 0.386581 7.28162 0.645381 7.06475C0.90418 6.84789 1.2191 6.70796 1.55409 6.66097L6.93053 5.8832L9.37501 1.00462C9.68299 0.384506 10.3051 0 11.0003 0C11.6954 0 12.3175 0.384506 12.6255 1.00462L15.0304 5.8543L20.4464 6.66097C20.7814 6.70796 21.0963 6.84789 21.3551 7.06475C21.6139 7.28162 21.8061 7.56664 21.9098 7.88719C22.0155 8.20727 22.0286 8.55052 21.9475 8.87766C21.8664 9.2048 21.6945 9.50261 21.4513 9.73702L17.5602 13.512L18.4639 18.8898C18.5222 19.2216 18.4855 19.5629 18.358 19.8748C18.2306 20.1868 18.0175 20.4567 17.7432 20.6538C17.4334 20.8778 17.0605 20.9988 16.6776 20.9998ZM1.77672 8.48278L5.66694 12.2578C6.09371 12.6729 6.28905 13.2685 6.18874 13.8536L5.27096 19.185L5.75669 20.0153L5.34664 19.2402L10.1555 16.7229C10.4156 16.5869 10.705 16.5158 10.9988 16.5156C11.2926 16.5155 11.5821 16.5863 11.8424 16.7221L16.6521 19.2402L16.7278 19.185L15.8091 13.8545C15.7598 13.5662 15.7814 13.2704 15.8721 12.9923C15.9628 12.7142 16.12 12.4621 16.3301 12.2578L20.2212 8.48278L20.1921 8.39256L14.8157 7.61479C14.5249 7.57242 14.2489 7.46047 14.0112 7.28854C13.7734 7.11662 13.5812 6.88984 13.4509 6.62769L11.046 1.77801C11.039 1.764 11.0311 1.74998 10.9985 1.74998L8.5461 6.62769C8.41621 6.8898 8.2243 7.11659 7.98687 7.28853C7.74944 7.46048 7.4736 7.57245 7.18307 7.61479L1.80488 8.39256L1.16164 9.10902L1.77672 8.48278Z" fill="black"/>
</svg>
