<svg width="21" height="21" viewBox="0 0 21 21" fill="none" xmlns="http://www.w3.org/2000/svg">
<path d="M16.3347 20.9946C16.1664 20.9953 16.0005 20.9536 15.8507 20.8731L10.4842 17.9234L5.11775 20.8731C4.94349 20.9693 4.74702 21.0122 4.55067 20.997C4.35432 20.9818 4.16597 20.9091 4.00702 20.7871C3.84808 20.6651 3.72493 20.4988 3.65156 20.3069C3.57819 20.1151 3.55755 19.9056 3.59199 19.702L4.64424 13.4824L0.308972 9.0634C0.173713 8.92169 0.0777626 8.74399 0.0314175 8.54936C-0.0149275 8.35473 -0.00991771 8.15053 0.0459094 7.95866C0.106898 7.76232 0.219085 7.58786 0.369739 7.45507C0.520394 7.32229 0.703483 7.2365 0.898231 7.20744L6.89605 6.2905L9.53719 0.623194C9.62335 0.436415 9.75789 0.278894 9.92538 0.168676C10.0929 0.0584575 10.2865 0 10.4842 0C10.6819 0 10.8756 0.0584575 11.0431 0.168676C11.2105 0.278894 11.3451 0.436415 11.4312 0.623194L14.104 6.27946L20.1018 7.19639C20.2965 7.22545 20.4796 7.31124 20.6303 7.44403C20.7809 7.57681 20.8931 7.75127 20.9541 7.94761C21.0099 8.13948 21.0149 8.34368 20.9686 8.53831C20.9222 8.73294 20.8263 8.91064 20.691 9.05235L16.3558 13.4713L17.408 19.691C17.4456 19.8981 17.4259 20.1122 17.3513 20.3079C17.2767 20.5037 17.1504 20.6729 16.9871 20.7957C16.7966 20.9359 16.5671 21.0058 16.3347 20.9946Z" fill="#FFA800"/>
</svg>
