<svg width="14" height="12" viewBox="0 0 14 12" fill="none" xmlns="http://www.w3.org/2000/svg">
<path d="M1.18764 11.9351C1.06906 11.9351 0.955342 11.883 0.871493 11.7903C0.787645 11.6975 0.74054 11.5717 0.74054 11.4405V0.559474C0.74054 0.428299 0.787645 0.302498 0.871493 0.209744C0.955342 0.116989 1.06906 0.0648804 1.18764 0.0648804H12.8124C12.9309 0.0648804 13.0447 0.116989 13.1285 0.209744C13.2124 0.302498 13.2595 0.428299 13.2595 0.559474V11.4405C13.2595 11.5717 13.2124 11.6975 13.1285 11.7903C13.0447 11.883 12.9309 11.9351 12.8124 11.9351H1.18764Z" fill="#FF1818"/>
<path d="M4.81402 7.81088L5.67624 8.6731C5.71555 8.7125 5.76264 8.74326 5.81451 8.76344C5.86638 8.78361 5.92188 8.79274 5.97748 8.79026C6.03308 8.78777 6.08755 8.77372 6.13741 8.749C6.18727 8.72428 6.23143 8.68943 6.26706 8.64668L8.22607 6.2962C8.26363 6.25101 8.31068 6.21465 8.36388 6.18969C8.41708 6.16473 8.47512 6.15179 8.53389 6.15179C8.59265 6.15179 8.65069 6.16473 8.70389 6.18969C8.75709 6.21465 8.80414 6.25101 8.84171 6.2962L11.8703 9.9308H2.1297L4.24802 7.81088C4.32308 7.73584 4.42488 7.69368 4.53102 7.69368C4.63716 7.69368 4.73896 7.73584 4.81402 7.81088Z" fill="white"/>
</svg>
