<svg width="12" height="12" viewBox="0 0 12 12" fill="none" xmlns="http://www.w3.org/2000/svg">
<path d="M2.37295 7.81353H3.09836V6.3627H3.82377C4.0293 6.3627 4.20171 6.29307 4.34099 6.15379C4.48027 6.01451 4.54966 5.84234 4.54918 5.63729V4.91188C4.54918 4.70635 4.47954 4.53419 4.34026 4.39539C4.20098 4.2566 4.02882 4.18696 3.82377 4.18647H2.37295V7.81353ZM3.09836 5.63729V4.91188H3.82377V5.63729H3.09836ZM5.27459 7.81353H6.72541C6.93094 7.81353 7.10335 7.74389 7.24263 7.60461C7.38191 7.46533 7.4513 7.29316 7.45082 7.08812V4.91188C7.45082 4.70635 7.38118 4.53419 7.2419 4.39539C7.10262 4.2566 6.93046 4.18696 6.72541 4.18647H5.27459V7.81353ZM6 7.08812V4.91188H6.72541V7.08812H6ZM8.17623 7.81353H8.90164V6.3627H9.62705V5.63729H8.90164V4.91188H9.62705V4.18647H8.17623V7.81353ZM1.64754 11.8033C1.24856 11.8033 0.907135 11.6613 0.623257 11.3775C0.33938 11.0936 0.1972 10.7519 0.196716 10.3525V1.64754C0.196716 1.24856 0.338897 0.907135 0.623257 0.623258C0.907618 0.33938 1.24904 0.1972 1.64754 0.196716H10.3525C10.7514 0.196716 11.0931 0.338897 11.3775 0.623258C11.6618 0.907619 11.8038 1.24904 11.8033 1.64754V10.3525C11.8033 10.7514 11.6613 11.0931 11.3775 11.3775C11.0936 11.6618 10.7519 11.8038 10.3525 11.8033H1.64754Z" fill="#FF1818"/>
</svg>
