<svg width="20" height="19" viewBox="0 0 20 19" fill="none" xmlns="http://www.w3.org/2000/svg">
<path d="M2.78466 3.17687C2.78466 2.94021 2.87868 2.71325 3.04602 2.5459C3.21337 2.37856 3.44034 2.28454 3.677 2.28454H9.18447C9.42111 2.28459 9.64804 2.37864 9.81535 2.546L16.954 9.68465C17.1213 9.85199 17.2153 10.0789 17.2153 10.3155C17.2153 10.5521 17.1213 10.7791 16.954 10.9464L11.4465 16.4539C11.2792 16.6212 11.0523 16.7151 10.8157 16.7151C10.579 16.7151 10.3521 16.6212 10.1848 16.4539L3.04612 9.31523C2.87876 9.14792 2.78471 8.92099 2.78466 8.68435V3.17687ZM3.677 0.499878C2.96701 0.499878 2.28611 0.781918 1.78407 1.28395C1.28204 1.78599 1 2.46689 1 3.17687V8.68435C1.00039 9.39397 1.28251 10.0744 1.78436 10.5761L8.92302 17.7148C9.42503 18.2166 10.1058 18.4985 10.8157 18.4985C11.5255 18.4985 12.2063 18.2166 12.7083 17.7148L18.2158 12.2091C18.4644 11.9605 18.6616 11.6653 18.7962 11.3405C18.9307 11.0157 19 10.6676 19 10.316C19 9.96439 18.9307 9.61625 18.7962 9.29143C18.6616 8.96661 18.4644 8.67148 18.2158 8.4229L11.0771 1.28424C10.5752 0.782169 9.8944 0.50003 9.18447 0.499878H3.677ZM5.46166 4.06921C5.225 4.06921 4.99803 4.16322 4.83069 4.33057C4.66334 4.49791 4.56933 4.72488 4.56933 4.96154C4.56933 5.1982 4.66334 5.42517 4.83069 5.59251C4.99803 5.75986 5.225 5.85387 5.46166 5.85387H5.47058C5.70725 5.85387 5.93421 5.75986 6.10156 5.59251C6.2689 5.42517 6.36292 5.1982 6.36292 4.96154C6.36292 4.72488 6.2689 4.49791 6.10156 4.33057C5.93421 4.16322 5.70725 4.06921 5.47058 4.06921H5.46166Z" fill="#45BF6B" stroke="#45BF6B" stroke-width="0.75"/>
</svg>
